<?xml version="1.0" standalone="no"?>
<!DOCTYPE svg PUBLIC "-//W3C//DTD SVG 20010904//EN"
 "http://www.w3.org/TR/2001/REC-SVG-20010904/DTD/svg10.dtd">
<svg version="1.0" xmlns="http://www.w3.org/2000/svg"
 width="633.000000pt" height="302.000000pt" viewBox="0 0 633.000000 302.000000"
 preserveAspectRatio="xMidYMid meet">
<metadata>
Created by potrace 1.16, written by Peter Selinger 2001-2019
</metadata>
<g transform="translate(0.000000,302.000000) scale(0.100000,-0.100000)"
fill="#000000" stroke="none">
<path d="M0 1510 l0 -1510 3165 0 3165 0 0 1510 0 1510 -3165 0 -3165 0 0
-1510z m5853 1326 c104 -43 127 -180 42 -255 -61 -53 -139 -53 -201 1 -128
112 2 320 159 254z m-2093 -898 c0 -5 -111 -8 -248 -8 l-247 0 -148 148 -147
147 0 255 0 255 395 -395 c217 -217 395 -398 395 -402z m-988 -205 l158 -158
0 -237 c0 -131 -3 -238 -8 -238 -7 0 -659 653 -747 748 l-39 42 239 0 240 0
157 -157z m-1892 -837 c18 -22 8 -59 -20 -73 -16 -8 -67 -13 -137 -13 -94 0
-113 -3 -113 -15 0 -12 16 -15 88 -15 97 0 135 -14 140 -48 7 -44 -12 -52
-124 -52 -97 0 -104 -1 -104 -20 0 -19 7 -20 122 -20 131 0 158 -9 158 -55 0
-41 -16 -45 -186 -45 -206 0 -194 -12 -194 192 0 120 3 149 16 162 22 23 335
24 354 2z m207 -88 l103 -103 0 83 c0 99 10 122 50 122 19 0 33 -7 40 -19 5
-11 10 -85 10 -170 0 -123 -3 -152 -16 -165 -30 -31 -55 -18 -160 86 l-104
102 0 -86 c0 -91 -11 -118 -50 -118 -44 0 -50 23 -50 181 0 85 5 159 10 170 7
11 21 19 38 19 21 0 50 -23 129 -102z m586 81 c31 -43 -7 -79 -83 -79 l-40 0
0 -113 c0 -123 -12 -157 -54 -157 -41 0 -46 17 -46 147 l0 123 -42 0 c-55 0
-92 19 -96 48 -7 48 8 52 184 52 153 0 164 -1 177 -21z m397 7 c18 -22 8 -59
-20 -73 -16 -8 -67 -13 -137 -13 -94 0 -113 -3 -113 -15 0 -12 16 -15 88 -15
97 0 135 -14 140 -48 7 -44 -12 -52 -124 -52 -97 0 -104 -1 -104 -20 0 -19 7
-20 124 -20 134 0 156 -8 156 -54 0 -42 -15 -46 -186 -46 -206 0 -194 -12
-194 192 0 120 3 149 16 162 22 23 335 24 354 2z m460 -143 c87 -167 93 -197
44 -209 -35 -9 -52 10 -104 115 -24 50 -47 91 -50 91 -3 0 -23 -36 -45 -80
-54 -110 -75 -135 -108 -126 -29 7 -41 33 -30 62 5 10 41 83 81 162 68 134 74
142 101 142 28 0 34 -9 111 -157z m276 55 l104 -102 0 90 c0 96 8 114 46 114
45 0 54 -32 54 -185 0 -111 -3 -145 -16 -163 -28 -40 -53 -28 -161 80 l-103
103 0 -84 c0 -65 -4 -89 -17 -103 -18 -21 -53 -24 -71 -6 -17 17 -17 329 0
346 30 30 60 13 164 -90z m584 88 c18 -22 8 -59 -20 -73 -14 -7 -61 -13 -105
-13 -87 0 -119 -13 -135 -56 -13 -34 7 -82 41 -99 15 -8 51 -15 79 -15 49 0
50 1 50 30 0 27 29 70 48 70 4 0 18 -7 30 -16 19 -13 22 -24 22 -88 0 -43 -5
-77 -12 -84 -20 -20 -205 -15 -253 7 -148 67 -148 257 0 334 41 22 237 24 255
3z m330 -147 c85 -168 90 -194 44 -205 -34 -9 -43 1 -99 110 -27 53 -52 96
-55 96 -3 0 -26 -41 -50 -91 -25 -49 -52 -97 -62 -105 -24 -22 -61 -14 -71 16
-7 21 6 53 73 183 77 149 83 157 110 157 28 0 34 -8 110 -161z m231 104 l60
-57 57 57 c60 59 88 69 116 41 13 -13 16 -42 16 -162 0 -160 -9 -192 -54 -192
-38 0 -46 18 -46 114 l0 90 -32 -31 c-50 -46 -63 -47 -108 -7 l-40 36 0 -83
c0 -63 -4 -87 -17 -101 -18 -21 -53 -24 -71 -6 -17 17 -17 329 0 346 25 25 59
12 119 -45z m561 -98 c42 -82 77 -160 78 -171 0 -28 -23 -46 -52 -42 -18 2
-35 26 -79 113 l-57 109 -53 -107 c-42 -83 -59 -109 -78 -114 -36 -9 -64 28
-50 65 12 33 138 272 152 290 6 7 22 12 36 10 23 -3 36 -23 103 -153z m188
136 c5 -11 10 -72 10 -135 l0 -116 118 0 c125 0 162 -11 162 -50 0 -44 -22
-50 -190 -50 -131 0 -161 3 -174 16 -13 13 -16 43 -16 169 0 126 3 156 16 169
21 22 61 20 74 -3z m441 -38 l60 -57 57 57 c62 62 102 74 122 38 17 -32 13
-40 -60 -115 l-70 -73 0 -63 c0 -70 -17 -100 -55 -100 -36 0 -45 20 -45 95 l0
71 -70 69 c-69 69 -83 98 -58 123 25 25 59 12 119 -45z m-3160 -570 c17 -54
34 -104 37 -110 2 -8 -4 -13 -16 -13 -14 0 -21 9 -25 30 -6 27 -10 30 -46 30
-34 0 -40 -4 -50 -30 -5 -17 -17 -30 -27 -30 -9 0 -14 6 -12 13 3 6 20 56 37
110 26 76 37 97 51 97 14 0 25 -21 51 -97z m141 21 l43 -76 3 76 c2 59 6 76
17 76 12 0 15 -20 15 -111 0 -99 -2 -110 -17 -107 -10 2 -37 37 -60 78 l-43
75 0 -77 c0 -71 -2 -78 -20 -78 -19 0 -20 7 -20 103 0 57 3 107 7 110 17 18
35 1 75 -69z m268 66 c11 -6 17 -17 14 -25 -5 -11 -11 -12 -24 -5 -51 27 -100
-6 -100 -68 0 -53 23 -82 66 -82 31 0 34 2 34 30 0 23 -4 30 -20 30 -11 0 -20
7 -20 15 0 10 11 15 35 15 l35 0 0 -55 c0 -54 0 -54 -37 -64 -107 -30 -177
112 -96 193 28 28 78 35 113 16z m180 -87 c18 -54 35 -104 38 -110 2 -8 -4
-13 -16 -13 -15 0 -22 9 -27 30 -6 27 -10 30 -45 30 -33 0 -39 -4 -49 -30 -5
-17 -17 -30 -27 -30 -20 0 -17 13 27 135 42 116 56 115 99 -12z m130 18 l27
-75 25 75 c19 59 29 75 46 77 21 3 22 1 22 -107 0 -91 -3 -111 -15 -111 -11 0
-15 18 -17 78 l-3 77 -23 -68 c-13 -37 -29 -67 -36 -67 -7 0 -23 29 -35 65
-13 36 -24 65 -25 65 -1 0 0 -34 2 -75 4 -71 3 -75 -17 -75 -20 0 -21 5 -21
111 0 107 1 110 21 107 17 -2 28 -20 49 -77z m287 -26 c38 -114 38 -115 17
-115 -8 0 -20 13 -25 30 -10 26 -16 30 -49 30 -35 0 -39 -3 -45 -30 -4 -20
-13 -30 -25 -30 -17 0 -15 10 18 110 31 94 40 110 56 108 15 -2 27 -26 53
-103z m550 71 c36 -42 33 -118 -6 -157 -25 -24 -37 -29 -80 -29 l-51 0 0 111
0 111 57 -4 c46 -4 61 -10 80 -32z m180 -71 c38 -114 38 -115 17 -115 -8 0
-20 13 -25 30 -10 26 -16 30 -49 30 -35 0 -39 -3 -45 -30 -5 -21 -12 -30 -27
-30 -12 0 -18 5 -15 13 3 6 20 56 39 110 27 82 36 97 52 95 15 -2 27 -26 53
-103z"/>
</g>
</svg>
